<svg xmlns="http://www.w3.org/2000/svg" viewBox="0 0 256 256" style="color: hsl(341deg 66% 67%);" width="32" height="32" ><path d="M 132.002 24 C 104.398 24.032 79.413 35.229 61.321 53.321 C 43.229 71.413 32.032 96.398 32 124.004 L 32 208.33 C 32.007 212.67 33.738 216.595 36.595 219.405 C 39.405 222.261 43.35 223.993 47.689 224 L 132 224 C 170.494 223.998 201.81 203.191 218.604 173.999 C 235.487 144.858 237.919 107.29 218.602 73.998 C 200.797 43.023 167.728 24.002 132.002 24 Z" fill="currentColor"></path><path fill="white"  d="M 160 120 L 96.059 120 C 92.932 119.988 90.424 118.324 89.08 116.013 C 87.728 113.674 87.615 110.718 89.069 108.005 C 90.549 105.569 93.102 104.008 96 104 L 159.941 104 C 163.068 104.012 165.576 105.676 166.92 107.987 C 168.272 110.326 168.385 113.282 166.931 115.995 C 165.451 118.431 162.898 119.992 160 120 Z" ></path><path fill="white" d="M 160 152 L 96.059 152 C 92.932 151.988 90.424 150.324 89.08 148.013 C 87.732 145.675 87.615 142.718 89.069 140.005 C 90.549 137.569 93.102 136.008 96 136 L 159.941 136 C 163.068 136.012 165.576 137.676 166.92 139.987 C 168.268 142.325 168.386 145.281 166.932 147.994 C 165.451 150.439 162.896 151.993 160 152 Z" ></path></svg>